HIERARCHY
ROOT Bip01
{
  OFFSET 15.7446 31.5610 57.6474
  CHANNELS 6 Xposition Yposition Zposition Zrotation Xrotation Yrotation
  JOINT Bip01_Footsteps
  {
    OFFSET 53.2821 -0.0001 8.1953
    CHANNELS 6 Xposition Yposition Zposition Zrotation Xrotation Yrotation
    End Site
    {
      OFFSET 0 0 0
    }
  }
  JOINT b_Hips
  {
    OFFSET 0.0000 0.0000 0.0000
    CHANNELS 6 Xposition Yposition Zposition Zrotation Xrotation Yrotation
    JOINT b_Spine
    {
      OFFSET 10.4409 -1.6220 0.0000
      CHANNELS 6 Xposition Yposition Zposition Zrotation Xrotation Yrotation
      JOINT b_Spine1
      {
        OFFSET 8.8514 -0.0090 0.0000
        CHANNELS 6 Xposition Yposition Zposition Zrotation Xrotation Yrotation
        JOINT b_Spine2
        {
          OFFSET 11.3035 -0.0088 -0.0000
          CHANNELS 6 Xposition Yposition Zposition Zrotation Xrotation Yrotation
          JOINT b_Spine3
          {
            OFFSET 11.0297 -0.0113 0.0000
            CHANNELS 6 Xposition Yposition Zposition Zrotation Xrotation Yrotation
            JOINT b__Neck
            {
              OFFSET 14.9480 -3.1935 0.0000
              CHANNELS 6 Xposition Yposition Zposition Zrotation Xrotation Yrotation
              JOINT b__Neck1
              {
                OFFSET 5.4958 -0.0043 0.0000
                CHANNELS 6 Xposition Yposition Zposition Zrotation Xrotation Yrotation
                JOINT b__Neck2
                {
                  OFFSET 5.5266 -0.0049 0.0000
                  CHANNELS 6 Xposition Yposition Zposition Zrotation Xrotation Yrotation
                  JOINT b_Head
                  {
                    OFFSET 6.1093 -0.0000 -0.0000
                    CHANNELS 6 Xposition Yposition Zposition Zrotation Xrotation Yrotation
                    JOINT Bip01_HeadNub
                    {
                      OFFSET 28.6688 0.0000 0.0000
                      CHANNELS 6 Xposition Yposition Zposition Zrotation Xrotation Yrotation
                      End Site
                      {
                        OFFSET 0 0 0
                      }
                    }
                    JOINT Dog_Jaw
                    {
                      OFFSET 0.6075 2.3575 -0.0000
                      CHANNELS 6 Xposition Yposition Zposition Zrotation Xrotation Yrotation
                      End Site
                      {
                        OFFSET 0 0 0
                      }
                    }
                  }
                }
              }
            }
            JOINT b_LeftClav
            {
              OFFSET 10.4683 2.1257 3.5190
              CHANNELS 6 Xposition Yposition Zposition Zrotation Xrotation Yrotation
              JOINT b_LeftArm
              {
                OFFSET 7.3453 0.0000 0.0000
                CHANNELS 6 Xposition Yposition Zposition Zrotation Xrotation Yrotation
                JOINT b_LeftForeArm
                {
                  OFFSET 23.3863 -0.0000 0.0000
                  CHANNELS 6 Xposition Yposition Zposition Zrotation Xrotation Yrotation
                  JOINT b_LeftHand
                  {
                    OFFSET 21.5040 -0.0000 0.0000
                    CHANNELS 6 Xposition Yposition Zposition Zrotation Xrotation Yrotation
                    JOINT b__LeftFinger
                    {
                      OFFSET 1.5926 6.2126 -0.0138
                      CHANNELS 6 Xposition Yposition Zposition Zrotation Xrotation Yrotation
                      JOINT Bip01_L_Finger0Nub
                      {
                        OFFSET 23.3657 0.0000 0.0000
                        CHANNELS 6 Xposition Yposition Zposition Zrotation Xrotation Yrotation
                        End Site
                        {
                          OFFSET 0 0 0
                        }
                      }
                    }
                  }
                }
                JOINT Dog_LeftArmor002
                {
                  OFFSET 4.2035 4.4457 12.7354
                  CHANNELS 6 Xposition Yposition Zposition Zrotation Xrotation Yrotation
                  End Site
                  {
                    OFFSET 0 0 0
                  }
                }
              }
            }
            JOINT b_RightClav
            {
              OFFSET 10.4683 2.1257 -3.5189
              CHANNELS 6 Xposition Yposition Zposition Zrotation Xrotation Yrotation
              JOINT b_RightArm
              {
                OFFSET 7.3453 -0.0000 -0.0000
                CHANNELS 6 Xposition Yposition Zposition Zrotation Xrotation Yrotation
                JOINT b_RightForeArm
                {
                  OFFSET 23.3863 0.0000 0.0000
                  CHANNELS 6 Xposition Yposition Zposition Zrotation Xrotation Yrotation
                  JOINT b_RightHand
                  {
                    OFFSET 21.5040 0.0000 0.0000
                    CHANNELS 6 Xposition Yposition Zposition Zrotation Xrotation Yrotation
                    JOINT b_RightFinger
                    {
                      OFFSET 1.5926 6.2126 0.0138
                      CHANNELS 6 Xposition Yposition Zposition Zrotation Xrotation Yrotation
                      JOINT Bip01_R_Finger0Nub
                      {
                        OFFSET 23.3657 -0.0000 0.0000
                        CHANNELS 6 Xposition Yposition Zposition Zrotation Xrotation Yrotation
                        End Site
                        {
                          OFFSET 0 0 0
                        }
                      }
                    }
                  }
                }
                JOINT Dog_RightArmor002
                {
                  OFFSET 4.2034 4.4457 -12.7351
                  CHANNELS 6 Xposition Yposition Zposition Zrotation Xrotation Yrotation
                  End Site
                  {
                    OFFSET 0 0 0
                  }
                }
              }
            }
          }
        }
      }
    }
    JOINT b_Tail001
    {
      OFFSET -2.2238 3.1695 2.4028
      CHANNELS 6 Xposition Yposition Zposition Zrotation Xrotation Yrotation
      JOINT b_Tail002
      {
        OFFSET 4.5589 0.0000 -0.0000
        CHANNELS 6 Xposition Yposition Zposition Zrotation Xrotation Yrotation
        JOINT b_Tail003
        {
          OFFSET 5.3731 0.0000 -0.0000
          CHANNELS 6 Xposition Yposition Zposition Zrotation Xrotation Yrotation
          JOINT b_Tail004
          {
            OFFSET 5.0945 -0.0000 0.0000
            CHANNELS 6 Xposition Yposition Zposition Zrotation Xrotation Yrotation
            JOINT b_Tail005
            {
              OFFSET 9.7173 -0.0000 -0.0001
              CHANNELS 6 Xposition Yposition Zposition Zrotation Xrotation Yrotation
              JOINT b_Tail006
              {
                OFFSET 8.2617 0.0001 0.0000
                CHANNELS 6 Xposition Yposition Zposition Zrotation Xrotation Yrotation
                JOINT b_Tail007
                {
                  OFFSET 9.7599 -0.0001 0.0000
                  CHANNELS 6 Xposition Yposition Zposition Zrotation Xrotation Yrotation
                  JOINT b_Tail008
                  {
                    OFFSET 11.1530 0.0000 -0.0000
                    CHANNELS 6 Xposition Yposition Zposition Zrotation Xrotation Yrotation
                    JOINT b_Tail009
                    {
                      OFFSET 10.3039 0.0000 0.0000
                      CHANNELS 6 Xposition Yposition Zposition Zrotation Xrotation Yrotation
                      End Site
                      {
                        OFFSET 0 0 0
                      }
                    }
                  }
                }
              }
            }
          }
        }
      }
    }
    JOINT Dog_LeftTail001
    {
      OFFSET -11.9878 -1.7857 10.1900
      CHANNELS 6 Xposition Yposition Zposition Zrotation Xrotation Yrotation
      JOINT Dog_LeftTail002
      {
        OFFSET 8.4424 0.0000 0.0000
        CHANNELS 6 Xposition Yposition Zposition Zrotation Xrotation Yrotation
        JOINT Dog_LeftTail003
        {
          OFFSET 9.9501 0.0000 -0.0000
          CHANNELS 6 Xposition Yposition Zposition Zrotation Xrotation Yrotation
          JOINT Dog_LeftTail004
          {
            OFFSET 9.4342 0.0000 -0.0000
            CHANNELS 6 Xposition Yposition Zposition Zrotation Xrotation Yrotation
            JOINT Dog_LeftTail005
            {
              OFFSET 9.7173 0.0001 0.0001
              CHANNELS 6 Xposition Yposition Zposition Zrotation Xrotation Yrotation
              JOINT Dog_LeftTail006
              {
                OFFSET 8.2618 -0.0000 -0.0000
                CHANNELS 6 Xposition Yposition Zposition Zrotation Xrotation Yrotation
                JOINT Dog_LeftTail007
                {
                  OFFSET 9.7599 0.0000 0.0000
                  CHANNELS 6 Xposition Yposition Zposition Zrotation Xrotation Yrotation
                  JOINT Dog_LeftTail008
                  {
                    OFFSET 11.1529 -0.0001 -0.0001
                    CHANNELS 6 Xposition Yposition Zposition Zrotation Xrotation Yrotation
                    JOINT Dog_LeftTail009
                    {
                      OFFSET 10.3039 -0.0000 0.0000
                      CHANNELS 6 Xposition Yposition Zposition Zrotation Xrotation Yrotation
                      End Site
                      {
                        OFFSET 0 0 0
                      }
                    }
                  }
                }
              }
            }
          }
        }
      }
    }
    JOINT b_LeftLegUpper
    {
      OFFSET -0.0000 0.0000 9.9422
      CHANNELS 6 Xposition Yposition Zposition Zrotation Xrotation Yrotation
      JOINT b_LeftLeg
      {
        OFFSET 25.9795 0.0000 0.0000
        CHANNELS 6 Xposition Yposition Zposition Zrotation Xrotation Yrotation
        JOINT b_LeftLeg1
        {
          OFFSET 21.2087 0.0000 -0.0000
          CHANNELS 6 Xposition Yposition Zposition Zrotation Xrotation Yrotation
          JOINT b_LeftAnkle
          {
            OFFSET 10.4341 -0.0000 0.0000
            CHANNELS 6 Xposition Yposition Zposition Zrotation Xrotation Yrotation
            JOINT b_LeftToe
            {
              OFFSET 5.6676 6.5983 -0.0000
              CHANNELS 6 Xposition Yposition Zposition Zrotation Xrotation Yrotation
              JOINT Bip01_L_Toe0Nub
              {
                OFFSET 8.6279 0.0000 0.0000
                CHANNELS 6 Xposition Yposition Zposition Zrotation Xrotation Yrotation
                End Site
                {
                  OFFSET 0 0 0
                }
              }
            }
            JOINT b_LeftToe002
            {
              OFFSET 5.6741 -2.3619 -0.5306
              CHANNELS 6 Xposition Yposition Zposition Zrotation Xrotation Yrotation
              End Site
              {
                OFFSET 0 0 0
              }
            }
          }
        }
      }
      JOINT Dog_LeftArmor001
      {
        OFFSET -2.6287 -3.4254 -3.1462
        CHANNELS 6 Xposition Yposition Zposition Zrotation Xrotation Yrotation
        End Site
        {
          OFFSET 0 0 0
        }
      }
    }
    JOINT b_RightLegUpper
    {
      OFFSET 0.0000 -0.0000 -9.9422
      CHANNELS 6 Xposition Yposition Zposition Zrotation Xrotation Yrotation
      JOINT b_RightLeg
      {
        OFFSET 25.9795 0.0000 0.0000
        CHANNELS 6 Xposition Yposition Zposition Zrotation Xrotation Yrotation
        JOINT b_RightLeg1
        {
          OFFSET 21.2087 0.0000 0.0000
          CHANNELS 6 Xposition Yposition Zposition Zrotation Xrotation Yrotation
          JOINT b_RightAnkle
          {
            OFFSET 10.4341 -0.0000 -0.0000
            CHANNELS 6 Xposition Yposition Zposition Zrotation Xrotation Yrotation
            JOINT b_RightToe
            {
              OFFSET 5.6676 6.5983 0.0000
              CHANNELS 6 Xposition Yposition Zposition Zrotation Xrotation Yrotation
              JOINT Bip01_R_Toe0Nub
              {
                OFFSET 8.6279 -0.0000 -0.0000
                CHANNELS 6 Xposition Yposition Zposition Zrotation Xrotation Yrotation
                End Site
                {
                  OFFSET 0 0 0
                }
              }
            }
            JOINT b_RightToe002
            {
              OFFSET 5.6741 -2.3620 0.5304
              CHANNELS 6 Xposition Yposition Zposition Zrotation Xrotation Yrotation
              End Site
              {
                OFFSET 0 0 0
              }
            }
          }
        }
      }
      JOINT Dog_RightArmor001
      {
        OFFSET -2.6288 -3.4254 3.1460
        CHANNELS 6 Xposition Yposition Zposition Zrotation Xrotation Yrotation
        End Site
        {
          OFFSET 0 0 0
        }
      }
    }
  }
}
MOTION
Frames: 4
Frame Time: 0.00833333
-84.7442 57.2963 598.181 90.3607 -46.0195 -173.286 53.2821 -6.35e-05 8.19533 -90 -81.2558 -180 0 0 0 -89.9999 -4.1675e-14 -90 10.4409 -1.622 1.78e-05 -4.78524 1.54943 -9.05745 8.8514 -0.0089989 0 -4.73895 1.08603 -9.45229 11.3035 -0.0087814 0 -4.53795 0.522133 -8.34119 11.0297 -0.0113029 1.42109e-14 -1.69179 1.5883 -4.52989 14.948 -3.19349 8.6e-06 -47.1058 1.35729 -16.5607 5.49578 -0.0042877 4.26326e-14 9.59806 -4.01617 5.38225 5.52657 -0.0048637 7.10543e-15 5.58346 -5.11401 8.10433 6.10934 -5.68434e-14 0 51.9779 12.6736 1.27305 28.6688 0 0 -2.38542e-15 0 -3.18055e-15 0.607494 2.35752 -7.6e-06 -156.427 -0.000147608 180 10.4683 2.1257 3.51896 -176.812 12.2484 -87.314 7.34534 1.42109e-14 1.9e-06 73.8878 -89.0729 166.572 23.3863 -1.9e-06 1e-06 1.48596 -0.646205 -1.22537 21.504 -1.13687e-13 -1.42109e-14 -115.112 -5.5663 -1.99062 1.59262 6.21256 -0.0138378 137.686 -19.8703 9.11213 23.3657 -1.13687e-13 1e-06 -5.51738e-32 -1.59028e-15 -1.98785e-15 4.20345 4.44573 12.7354 172.377 0.21838 -87.1877 10.4683 2.12572 -3.51895 179.387 0.496605 91.3431 7.34534 -2.84217e-14 -1.9e-06 -15.6259 75.5318 -57.7877 23.3863 1.9e-06 7.10543e-15 1.05171 1.59028e-15 1.60022e-14 21.504 3.8e-06 1e-06 -106.892 -8.14797 -22.9274 1.59262 6.21257 0.0138388 -61.2703 -23.334 -1.28856 23.3657 -1.13687e-13 1e-06 180 3.02153e-14 3.53837e-14 4.20337 4.4457 -12.7351 172.377 -0.218352 87.1876 -2.22376 3.16947 2.40276 133.083 13.6847 12.554 4.55886 4.1202e-05 -6.156e-06 -24.3039 -29.5765 -45.5749 5.37305 4.104e-06 -7.236e-06 -9.83326 6.76868 -0.950488 5.09447 -1.2366e-05 3.0888e-05 4.57205e-15 -3.18055e-15 6.55989e-15 9.71734 -4.2e-05 -5.72e-05 7.25564e-15 -6.36111e-15 -1.2921e-14 8.26175 8.01e-05 5.7e-06 4.37326e-15 6.36111e-15 -2.98177e-15 9.75986 -6.48e-05 2.86e-05 1.88845e-15 0 -2.48481e-15 11.153 2.67e-05 -2.1e-05 1.49089e-15 0 -2.78299e-15 10.3039 1.14e-05 4.2e-05 8.94531e-16 0 -3.47873e-15 -11.9878 -1.78568 10.19 170.606 3.62573 1.11034 8.44238 1.53e-05 4.2e-05 2.98177e-16 6.95746e-16 -0 9.95005 7.6e-06 -2.86e-05 3.97569e-16 3.97569e-16 -3.18055e-15 9.43418 0 -4.58e-05 4.96962e-16 5.96354e-16 -3.18055e-15 9.71733 6.87e-05 0.0001106 9.93923e-17 0 -3.18055e-15 8.26175 -2.29e-05 -4.77e-05 2.98177e-16 -6.95746e-16 -3.18055e-15 9.75994 2.86e-05 3.05e-05 -0 0 -3.18055e-15 11.1529 -7.25e-05 -5.91e-05 3.97569e-16 0 -3.18055e-15 10.3039 -7.6e-06 0 4.96962e-16 -9.93923e-17 -3.18055e-15 -1.14e-05 1.53e-05 9.94222 -108.107 12.8554 177.491 25.9795 1e-06 5.68434e-14 -40.1984 -0.243926 -1.1859 21.2087 1.9e-06 -1e-06 49.9329 16.6157 -19.4522 10.4341 -1.9e-06 1e-06 -9.42992 -2.41196 4.59362 5.66763 6.59832 -5.68434e-14 96.0463 18.3768 -9.47014 8.62785 -2.84217e-14 0 -180 2.70347e-14 -2.54444e-14 5.67414 -2.36194 -0.530567 -75.8081 4.38708 5.33411 -2.62874 -3.42539 -3.14618 29.7499 1.82752 90.2264 1.53e-05 -1.53e-05 -9.94222 -105.188 -23.9963 168.051 25.9795 0 1e-06 -38.5838 -0.229508 2.58722 21.2087 0 1.9e-06 51.0308 -4.46517 2.17102 10.4341 -1.9e-06 -1e-06 -15.558 16.0388 -4.13487 5.66763 6.59831 -1.13687e-13 87.3564 3.16188 -2.17644 8.62785 0 1.13687e-13 -1.49089e-16 -7.95139e-16 7.95139e-16 5.67412 -2.36198 0.530355 -75.808 -4.38692 -5.33418 -2.62878 -3.42545 3.14601 29.7498 -1.82753 -90.2266
-84.7442 57.2963 598.181 90.3607 -46.0195 -173.286 53.2821 -6.35e-05 8.19533 -90 -81.2558 -180 0 0 0 -89.9999 -4.1675e-14 -90 10.4409 -1.622 1.78e-05 -4.78524 1.54943 -9.05745 8.8514 -0.0089989 0 -4.73895 1.08603 -9.45229 11.3035 -0.0087814 0 -4.53795 0.522133 -8.34119 11.0297 -0.0113029 1.42109e-14 -1.69179 1.5883 -4.52989 14.948 -3.19349 8.6e-06 -47.1058 1.35729 -16.5607 5.49578 -0.0042877 4.26326e-14 9.59806 -4.01617 5.38225 5.52657 -0.0048637 7.10543e-15 5.58346 -5.11401 8.10433 6.10934 -5.68434e-14 0 51.9779 12.6736 1.27305 28.6688 0 0 -2.38542e-15 0 -3.18055e-15 0.607494 2.35752 -7.6e-06 -156.427 -0.000147608 180 10.4683 2.1257 3.51896 -176.812 12.2484 -87.314 7.34534 1.42109e-14 1.9e-06 73.8878 -89.0729 166.572 23.3863 -1.9e-06 1e-06 1.48596 -0.646205 -1.22537 21.504 -1.13687e-13 -1.42109e-14 -115.112 -5.5663 -1.99062 1.59262 6.21256 -0.0138378 137.686 -19.8703 9.11213 23.3657 -1.13687e-13 1e-06 -5.51738e-32 -1.59028e-15 -1.98785e-15 4.20345 4.44573 12.7354 172.377 0.21838 -87.1877 10.4683 2.12572 -3.51895 179.387 0.496605 91.3431 7.34534 -2.84217e-14 -1.9e-06 -15.6259 75.5318 -57.7877 23.3863 1.9e-06 7.10543e-15 1.05171 1.59028e-15 1.60022e-14 21.504 3.8e-06 1e-06 -106.892 -8.14797 -22.9274 1.59262 6.21257 0.0138388 -61.2703 -23.334 -1.28856 23.3657 -1.13687e-13 1e-06 180 3.02153e-14 3.53837e-14 4.20337 4.4457 -12.7351 172.377 -0.218352 87.1876 -2.22376 3.16947 2.40276 133.083 13.6847 12.554 4.55886 4.1202e-05 -6.156e-06 -24.3039 -29.5765 -45.5749 5.37305 4.104e-06 -7.236e-06 -9.83326 6.76868 -0.950488 5.09447 -1.2366e-05 3.0888e-05 4.57205e-15 -3.18055e-15 6.55989e-15 9.71734 -4.2e-05 -5.72e-05 7.25564e-15 -6.36111e-15 -1.2921e-14 8.26175 8.01e-05 5.7e-06 4.37326e-15 6.36111e-15 -2.98177e-15 9.75986 -6.48e-05 2.86e-05 1.88845e-15 0 -2.48481e-15 11.153 2.67e-05 -2.1e-05 1.49089e-15 0 -2.78299e-15 10.3039 1.14e-05 4.2e-05 8.94531e-16 0 -3.47873e-15 -11.9878 -1.78568 10.19 170.606 3.62573 1.11034 8.44238 1.53e-05 4.2e-05 2.98177e-16 6.95746e-16 -0 9.95005 7.6e-06 -2.86e-05 3.97569e-16 3.97569e-16 -3.18055e-15 9.43418 0 -4.58e-05 4.96962e-16 5.96354e-16 -3.18055e-15 9.71733 6.87e-05 0.0001106 9.93923e-17 0 -3.18055e-15 8.26175 -2.29e-05 -4.77e-05 2.98177e-16 -6.95746e-16 -3.18055e-15 9.75994 2.86e-05 3.05e-05 -0 0 -3.18055e-15 11.1529 -7.25e-05 -5.91e-05 3.97569e-16 0 -3.18055e-15 10.3039 -7.6e-06 0 4.96962e-16 -9.93923e-17 -3.18055e-15 -1.14e-05 1.53e-05 9.94222 -108.107 12.8554 177.491 25.9795 1e-06 5.68434e-14 -40.1984 -0.243926 -1.1859 21.2087 1.9e-06 -1e-06 49.9329 16.6157 -19.4522 10.4341 -1.9e-06 1e-06 -9.42992 -2.41196 4.59362 5.66763 6.59832 -5.68434e-14 96.0463 18.3768 -9.47014 8.62785 -2.84217e-14 0 -180 2.70347e-14 -2.54444e-14 5.67414 -2.36194 -0.530567 -75.8081 4.38708 5.33411 -2.62874 -3.42539 -3.14618 29.7499 1.82752 90.2264 1.53e-05 -1.53e-05 -9.94222 -105.188 -23.9963 168.051 25.9795 0 1e-06 -38.5838 -0.229508 2.58722 21.2087 0 1.9e-06 51.0308 -4.46517 2.17102 10.4341 -1.9e-06 -1e-06 -15.558 16.0388 -4.13487 5.66763 6.59831 -1.13687e-13 87.3564 3.16188 -2.17644 8.62785 0 1.13687e-13 -1.49089e-16 -7.95139e-16 7.95139e-16 5.67412 -2.36198 0.530355 -75.808 -4.38692 -5.33418 -2.62878 -3.42545 3.14601 29.7498 -1.82753 -90.2266
-83.4139 58.1294 596.356 83.6298 -58.8273 -170.82 53.2821 -6.35e-05 8.19533 -90 -81.2558 -180 0 0 0 -89.9999 -4.1675e-14 -90 10.4409 -1.622 1.78e-05 -4.82236 1.65791 -8.79167 8.8514 -0.0089989 0 -4.7574 1.11555 -9.39849 11.3035 -0.0087814 0 -4.53098 0.523131 -8.37863 11.0297 -0.0113029 -5.68434e-14 -1.72863 1.60598 -4.6384 14.948 -3.19349 8.6e-06 -46.8101 1.62452 -17.1626 5.49578 -0.0042877 5.68434e-14 9.42907 -3.921 5.8319 5.52657 -0.0048637 0 5.52925 -5.37962 7.87527 6.10934 0 0 51.9527 12.3865 1.09682 28.6688 0 0 3.97569e-16 4.37326e-15 9.54166e-15 0.607494 2.35752 -7.6e-06 -156.427 -0.000147608 180 10.4683 2.1257 3.51896 -176.737 12.416 -87.2622 7.34534 0 1.9e-06 78.4164 -88.9737 170.917 23.3863 -1.9e-06 1e-06 1.26554 -0.641486 -1.22785 21.504 0 2.84217e-14 -115.219 -5.56258 -2.00103 1.59262 6.21256 -0.0138378 145.902 -22.2946 10.7806 23.3657 5.68434e-14 1e-06 -1.12072e-33 4.96962e-17 1.2921e-15 4.20345 4.44573 12.7354 172.377 0.21838 -87.1877 10.4683 2.12572 -3.51895 179.531 0.519801 91.481 7.34534 0 -1.9e-06 -16.2077 75.6703 -57.2456 23.3863 1.9e-06 0 1.14708 -6.36111e-15 1.39149e-14 21.504 3.8e-06 1e-06 -106.962 -7.62553 -22.1094 1.59262 6.21257 0.0138388 -47.7976 -12.4011 4.18413 23.3657 -5.68434e-14 1e-06 180 -4.45278e-14 -1.66979e-14 4.20337 4.4457 -12.7351 172.377 -0.218352 87.1876 -2.22376 3.16947 2.40276 132.525 13.7188 13.6033 4.55886 4.1202e-05 -6.156e-06 -22.9287 -28.9765 -42.7314 5.37305 4.104e-06 -7.236e-06 -10.0526 7.16681 -0.556223 5.09447 -1.2366e-05 3.0888e-05 4.37326e-15 0 7.15625e-15 9.71734 -4.2e-05 -5.72e-05 7.95139e-16 0 4.77083e-15 8.26175 8.01e-05 5.7e-06 5.56597e-15 3.18055e-15 4.77083e-15 9.75986 -6.48e-05 2.86e-05 -8.74653e-15 -9.54166e-15 3.97569e-15 11.153 2.67e-05 -2.1e-05 6.36111e-15 -6.36111e-15 3.18055e-15 10.3039 1.14e-05 4.2e-05 -7.95139e-16 6.36111e-15 -1.59028e-15 -11.9878 -1.78568 10.19 170.606 3.62573 1.11034 8.44238 1.53e-05 4.2e-05 5.96354e-16 -3.97569e-16 3.18055e-15 9.95005 7.6e-06 -2.86e-05 1.19271e-15 -3.97569e-16 3.18055e-15 9.43418 -7.10543e-15 -4.58e-05 9.93923e-16 -3.97569e-16 3.18055e-15 9.71733 6.87e-05 0.0001106 1.39149e-15 0 3.18055e-15 8.26175 -2.29e-05 -4.77e-05 1.19271e-15 -3.97569e-16 3.18055e-15 9.75994 2.86e-05 3.05e-05 7.95139e-16 -3.97569e-16 3.18055e-15 11.1529 -7.25e-05 -5.91e-05 5.96354e-16 3.97569e-16 -0 10.3039 -7.6e-06 0 1.19271e-15 3.97569e-16 -0 -1.14e-05 1.53e-05 9.94222 -108.26 12.7508 177.662 25.9795 1e-06 0 -40.4434 -0.238851 -1.18693 21.2087 1.9e-06 -1e-06 50.2804 16.9224 -19.7613 10.4341 -1.9e-06 1e-06 -9.36992 -2.40714 4.59614 5.66763 6.59832 0 96.274 19.1766 -9.88485 8.62785 1.42109e-14 -1.13687e-13 -180 0 -9.54166e-15 5.67414 -2.36194 -0.530567 -75.8081 4.38708 5.33411 -2.62874 -3.42539 -3.14618 29.7499 1.82752 90.2264 1.53e-05 -1.53e-05 -9.94222 -104.986 -24.1251 168.24 25.9795 0 1e-06 -38.474 -0.224547 2.58765 21.2087 0 1.9e-06 51.2016 -4.67003 2.08222 10.4341 -1.9e-06 -1e-06 -15.6901 16.2663 -4.00319 5.66763 6.59831 0 87.1818 3.21562 -2.13866 8.62785 0 -1.13687e-13 1.19271e-15 1.59028e-15 -0 5.67412 -2.36198 0.530356 -75.808 -4.38692 -5.33418 -2.62878 -3.42545 3.14601 29.7498 -1.82753 -90.2266
-83.3962 58.1037 596.422 83.8148 -58.4608 -170.655 53.2821 -6.35e-05 8.19533 -90 -81.2558 -180 0 0 0 -89.9999 -4.1675e-14 -90 10.4409 -1.622 1.78e-05 -4.95134 1.79583 -8.50102 8.8514 -0.0089989 0 -4.68449 1.15683 -9.27374 11.3035 -0.0087814 0 -4.49579 0.518934 -8.34973 11.0297 -0.0113029 -2.84217e-14 -1.73012 1.6083 -4.68564 14.948 -3.19349 8.6e-06 -46.6147 1.68032 -17.2857 5.49578 -0.0042877 2.84217e-14 9.33846 -3.78925 5.97199 5.52657 -0.0048637 0 5.52134 -5.36434 7.86976 6.10934 -5.68434e-14 0 52.0265 12.4255 1.12648 28.6688 -7.10543e-15 0 2.20695e-31 3.97569e-15 -3.18055e-15 0.607494 2.35752 -7.6e-06 -156.427 -0.000147608 180 10.4683 2.1257 3.51896 -176.679 12.4966 -87.2025 7.34534 0 1.9e-06 78.9345 -88.9327 171.378 23.3863 -1.9e-06 1e-06 1.14399 -0.638879 -1.22921 21.504 0 -2.84217e-14 -115.172 -5.56422 -1.99645 1.59262 6.21256 -0.0138378 145.843 -22.2304 10.6927 23.3657 5.68434e-14 1e-06 3.18055e-15 -2.23633e-16 -1.56543e-15 4.20345 4.44573 12.7354 172.377 0.21838 -87.1877 10.4683 2.12572 -3.51895 179.675 0.529591 91.5699 7.34534 0 -1.9e-06 -15.8086 75.8795 -57.632 23.3863 1.9e-06 0 1.17327 3.18055e-15 1.23246e-14 21.504 3.8e-06 1e-06 -106.963 -7.63597 -22.2973 1.59262 6.21257 0.0138388 -47.7845 -12.3842 4.18105 23.3657 0 1e-06 180 1.27222e-14 -6.36111e-15 4.20337 4.4457 -12.7351 172.377 -0.218352 87.1876 -2.22376 3.16947 2.40276 131.91 13.731 14.6089 4.55886 4.1202e-05 -6.156e-06 -20.4713 -27.0961 -39.0694 5.37305 4.104e-06 -7.236e-06 -10.1434 7.15344 -0.599867 5.09447 -1.2366e-05 3.0888e-05 6.95746e-15 6.36111e-15 -5.1684e-15 9.71734 -4.2e-05 -5.72e-05 1.15295e-14 -6.36111e-15 -3.57812e-15 8.26175 8.01e-05 5.7e-06 1.78906e-14 0 2.38542e-15 9.75986 -6.48e-05 2.86e-05 -2.38542e-15 0 -2.78299e-15 11.153 2.67e-05 -2.1e-05 -3.18055e-15 0 -4.37326e-15 10.3039 1.14e-05 4.2e-05 -2.18663e-15 3.18055e-15 3.97569e-16 -11.9878 -1.78568 10.19 170.606 3.62573 1.11034 8.44238 1.53e-05 4.2e-05 -1.98785e-16 -3.97569e-16 -6.36111e-15 9.95005 7.6e-06 -2.86e-05 5.96354e-16 3.97569e-16 -3.18055e-15 9.43418 7.10543e-15 -4.58e-05 -9.93923e-16 -7.95139e-16 -0 9.71733 6.87e-05 0.0001106 -1.19271e-15 -3.97569e-16 -0 8.26175 -2.29e-05 -4.77e-05 -1.19271e-15 -3.97569e-16 -0 9.75994 2.86e-05 3.05e-05 -7.95139e-16 0 -0 11.1529 -7.25e-05 -5.91e-05 -5.96354e-16 0 -0 10.3039 -7.6e-06 0 -9.93923e-16 0 3.18055e-15 -1.14e-05 1.53e-05 9.94222 -108.46 12.6378 177.888 25.9795 1e-06 5.68434e-14 -40.7287 -0.232938 -1.18811 21.2087 1.9e-06 -1e-06 50.5786 17.1452 -19.9682 10.4341 -1.9e-06 1e-06 -9.40683 -2.41011 4.59459 5.66763 6.59832 -5.68434e-14 96.214 19.1461 -9.83917 8.62785 0 0 -180 0 -0 5.67414 -2.36194 -0.530567 -75.8081 4.38708 5.33411 -2.62874 -3.42539 -3.14618 29.7499 1.82752 90.2264 1.53e-05 -1.53e-05 -9.94222 -104.806 -24.2917 168.483 25.9795 0 1e-06 -38.4355 -0.222808 2.5878 21.2087 -1.42109e-14 1.9e-06 51.2529 -4.47678 1.94717 10.4341 -1.9e-06 -1e-06 -15.7342 16.2176 -3.98092 5.66763 6.59831 0 87.1516 3.21997 -2.14248 8.62785 0 0 -3.97569e-16 7.95139e-16 -1.59028e-15 5.67412 -2.36198 0.530355 -75.808 -4.38692 -5.33418 -2.62878 -3.42545 3.14601 29.7498 -1.82753 -90.2266
